<?xml version="1.0" encoding="utf-8"?>
<!DOCTYPE svg PUBLIC "-//W3C//DTD SVG 20010904//EN" "http://www.w3.org/TR/2001/REC-SVG-20010904/DTD/svg10.dtd">
<svg version="1.0" xmlns="http://www.w3.org/2000/svg" width="458px" height="458px" viewBox="0 0 458 458" preserveAspectRatio="xMidYMid meet">
 <g fill="none" stroke="#ffffff" stroke-width="0.5">
  <path d="M0 229 l0 -229 229 0 229 0 0 229 0 229 -229 0 -229 0 0 -229z m241 132.25 c30.25 -2.65 57.40 -11.95 85.50 -29.15 6.20 -3.85 18.40 -12.05 18.80 -12.70 0.30 -0.45 -2.30 -4.45 -5.40 -8.50 l-1.45 -1.85 -7.10 4.80 c-30.70 20.65 -56.30 30.50 -87.85 33.70 -9.20 0.95 -30.75 0.85 -38.65 -0.20 -17.15 -2.30 -32.45 -6.95 -47.40 -14.35 -7.25 -3.60 -15.55 -8.60 -17.45 -10.50 -0.15 -0.15 -1.10 -0.70 -2.10 -1.25 -1.05 -0.55 -4.25 -2.90 -7.15 -5.20 -5.05 -4 -5.25 -4.25 -5.25 -6.10 0 -1.70 0.20 -2 1.65 -2.65 0.85 -0.35 8.45 -3.90 16.85 -7.80 8.40 -3.90 16.60 -7.75 18.25 -8.50 1.65 -0.75 14.70 -6.85 29 -13.50 14.30 -6.65 27.45 -12.80 29.25 -13.60 1.80 -0.85 13.05 -6.05 25 -11.65 11.95 -5.55 29.40 -13.65 38.75 -18 9.35 -4.35 17.10 -7.95 17.20 -8.05 0.40 -0.35 -1.60 -1.60 -7.70 -4.75 l-6 -3.10 -15.50 7.30 c-8.50 3.95 -28.20 13.15 -43.75 20.35 -15.55 7.25 -38.25 17.80 -50.50 23.50 -45.75 21.30 -62.30 28.90 -63.50 29.25 -2.25 0.70 -8.70 4.35 -9.85 5.60 -1.05 1.10 -1.10 1.30 -0.45 2.55 0.80 1.50 12.90 13.55 17.55 17.45 21.10 17.75 49.10 30.85 75.75 35.40 13.15 2.25 28.85 2.80 43.50 1.50z m-54.60 -45.20 c10.65 -4.90 20.95 -9.70 22.85 -10.55 1.95 -0.90 7.30 -3.40 11.95 -5.55 4.60 -2.20 8.45 -3.95 8.55 -3.95 0.05 0 2.45 -1.10 5.30 -2.45 2.85 -1.35 15.45 -7.15 27.95 -12.95 12.50 -5.75 24.45 -11.30 26.50 -12.25 2.05 -0.95 14.35 -6.60 27.25 -12.55 25.20 -11.65 36.55 -17.10 37 -17.80 0.35 -0.55 -7.95 -9.60 -13.40 -14.60 -9.55 -8.75 -20.65 -16.75 -31.70 -22.85 -19.05 -10.55 -43 -17.80 -64.05 -19.35 l-4.65 -0.35 0.15 -5.45 0.15 -5.45 4.15 -1.40 c6 -2.10 9.25 -4.20 14.60 -9.55 4.10 -4.05 5.15 -5.45 7.10 -9.50 3.05 -6.20 4.05 -10.10 4.10 -16 0 -5.85 -0.95 -9.70 -3.90 -15.75 -3.95 -7.90 -10.15 -14.10 -18.05 -17.95 -5.95 -2.85 -8.80 -3.50 -15.50 -3.50 -5.40 0 -6.45 0.15 -10.35 1.55 -7.75 2.70 -14.15 7.25 -18.80 13.25 -5.15 6.75 -9.40 19.60 -6.80 20.60 0.45 0.15 3.10 0.30 5.95 0.30 5.55 0 6.75 -0.45 6.75 -2.65 0 -3.85 3.25 -10.05 7 -13.50 3.85 -3.60 7.60 -5.30 13 -6 5.10 -0.65 10.75 0.20 14.85 2.25 3.95 1.95 7.90 6 10 10.30 l1.90 3.80 0 6.75 c0 7.90 -0.45 9.70 -3.35 14.05 -4.25 6.35 -10.25 9.45 -19.25 9.90 -3.40 0.15 -6 0.50 -6.50 0.90 -0.80 0.55 -0.95 1.90 -1.15 11.80 l-0.25 11.15 -2.75 0.10 c-8.65 0.40 -22.10 2.15 -31.50 4.20 -18.10 3.85 -37.75 11.70 -56.75 22.70 -5.40 3.10 -23.50 14.95 -23.95 15.65 -0.45 0.70 6.75 10.20 7.50 9.90 0.40 -0.15 3.10 -1.95 6.05 -3.95 7.80 -5.35 19.50 -12.30 28.05 -16.60 21.15 -10.65 40.50 -15.95 64.60 -17.80 9.50 -0.70 29.25 -0.30 36.25 0.75 15.25 2.30 28.90 6.35 42.50 12.65 14 6.50 21 10.95 31.15 19.80 3.80 3.30 4.10 3.75 4 5.30 l-0.15 1.65 -21 9.75 c-11.55 5.35 -32.35 14.95 -46.25 21.40 -13.90 6.40 -33.10 15.30 -42.75 19.75 -36.35 16.85 -52.25 24.20 -59.60 27.60 -4.20 1.95 -7.65 3.65 -7.65 3.85 0 0.15 0.95 0.85 2.15 1.50 2.35 1.40 11.05 6.05 11.25 6.05 0.05 0 8.85 -4.05 19.50 -8.95z"/>
 </g>
 <g fill="#000000" stroke="#000000" stroke-width="0.5">
  <path d="M206.75 362.75 c-28.30 -3.10 -54.60 -13.30 -77.65 -30.10 -3.20 -2.35 -7.20 -5.40 -8.85 -6.80 -4.65 -3.90 -16.75 -15.95 -17.55 -17.45 -1.05 -1.95 -0.85 -4.15 0.45 -5.55 1.15 -1.25 7.60 -4.90 9.85 -5.60 1.20 -0.35 17.70 -7.95 63.50 -29.25 12.25 -5.70 34.75 -16.15 50 -23.25 15.25 -7.10 35.35 -16.45 44.60 -20.80 l16.85 -7.85 6.05 3.15 c8.90 4.70 12.25 6.80 11.45 7.30 -0.40 0.20 -7.35 3.45 -15.45 7.20 -8.10 3.75 -26.05 12.10 -39.85 18.55 -13.80 6.40 -26.50 12.35 -28.25 13.15 -1.75 0.80 -14.85 6.90 -29.15 13.55 -14.30 6.65 -27.35 12.75 -29 13.50 -1.65 0.75 -9.85 4.60 -18.25 8.50 -8.40 3.90 -16 7.45 -16.85 7.80 -0.90 0.40 -1.65 0.90 -1.65 1.15 0 0.60 10.05 8.55 12.40 9.80 1 0.55 1.95 1.10 2.10 1.25 1.90 1.90 10.20 6.90 17.45 10.50 14.95 7.40 30.30 12.05 47.40 14.35 7.80 1 27 1.15 35.90 0.20 31.50 -3.30 57 -13.10 87.70 -33.75 9.30 -6.30 9 -6.30 13.90 0.45 3.60 5 4.05 6.05 3.20 7.70 -0.55 1 -10.95 8.20 -19.05 13.15 -28.10 17.20 -55.25 26.50 -85.50 29.15 -9.95 0.90 -27.55 0.90 -35.75 0z"/>
  <path d="M161.80 324.70 c-7.30 -3.90 -12.85 -7.35 -12.45 -7.75 0.25 -0.15 4.55 -2.25 9.65 -4.60 9.05 -4.15 25.70 -11.85 59.50 -27.50 29.40 -13.60 70.15 -32.45 90.50 -41.85 10.85 -5 19.90 -9.25 20.10 -9.45 0.40 -0.35 -6.05 -6.15 -11.35 -10.15 -13.70 -10.40 -35.40 -19.95 -55 -24.15 -9.70 -2.10 -15.40 -2.75 -26.25 -3.10 -19.85 -0.55 -39.20 1.95 -56.75 7.45 -16.35 5.05 -36.65 15.40 -54.60 27.70 -3.75 2.60 -6.55 4.20 -7.35 4.20 -1.05 0 -1.95 -0.90 -4.80 -4.75 -4.35 -5.90 -4.80 -6.80 -4.05 -8.20 0.65 -1.15 16.45 -11.80 24.30 -16.30 19 -11 38.65 -18.85 56.75 -22.70 9.40 -2.05 22.85 -3.80 31.50 -4.20 l2.75 -0.10 0.25 -11.15 c0.20 -9.90 0.35 -11.25 1.15 -11.80 0.50 -0.40 3.10 -0.75 6.50 -0.90 9 -0.45 15 -3.55 19.25 -9.90 2.80 -4.15 3.35 -6.25 3.35 -12.55 0 -5.05 -0.05 -5.40 -1.90 -9.05 -6.70 -13.60 -23.75 -16.85 -34.85 -6.55 -3.75 3.45 -7 9.65 -7 13.50 0 2.30 -1.05 2.65 -8.50 2.65 -8.35 0 -8.80 -0.20 -8.30 -4.20 0.60 -4.65 1.90 -9 3.90 -13.05 4.75 -9.65 12.25 -16.20 22.80 -19.95 4.10 -1.45 4.75 -1.55 11.85 -1.55 8.35 0 10.70 0.50 17 3.55 7.90 3.85 14.10 10.05 18.05 17.95 3.20 6.50 3.95 9.80 3.90 17.25 0 7.50 -0.80 10.75 -4.10 17.50 -1.95 4.05 -3 5.45 -7.10 9.50 -5.35 5.35 -8.60 7.45 -14.60 9.55 l-4.15 1.40 -0.15 3.95 -0.15 3.95 4.65 0.35 c38.90 2.90 77.50 21.75 104.65 51.20 5.40 5.85 6.10 7.25 4.40 8.70 -1.35 1.10 -10.95 5.75 -36.90 17.70 -12.90 5.95 -25.20 11.60 -27.25 12.55 -2.05 0.95 -14 6.50 -26.50 12.25 -12.50 5.80 -25.10 11.60 -27.95 12.95 -2.85 1.35 -5.25 2.45 -5.30 2.45 -0.10 0 -3.95 1.75 -8.55 3.95 -4.65 2.15 -10 4.65 -11.95 5.55 -1.90 0.85 -12.25 5.65 -23 10.60 -10.70 4.95 -19.85 9.15 -20.25 9.35 -0.45 0.25 -2.65 -0.65 -5.70 -2.25z"/>
 </g>
</svg>